<svg width="24" height="24" viewBox="0 0 24 24" fill="none" xmlns="http://www.w3.org/2000/svg">
<path d="M17.5996 0C19.8398 0 20.9608 -0.000427114 21.8164 0.435547C22.5689 0.819016 23.181 1.43109 23.5645 2.18359C24.0004 3.03924 24 4.16018 24 6.40039V17.5996C24 19.8398 24.0004 20.9608 23.5645 21.8164C23.181 22.5689 22.5689 23.181 21.8164 23.5645C20.9608 24.0004 19.8398 24 17.5996 24H6.40039C4.16018 24 3.03924 24.0004 2.18359 23.5645C1.43109 23.181 0.819016 22.5689 0.435547 21.8164C-0.000427114 20.9608 0 19.8398 0 17.5996V6.40039C0 4.16018 -0.000427114 3.03924 0.435547 2.18359C0.819016 1.43109 1.43109 0.819016 2.18359 0.435547C3.03924 -0.000427114 4.16018 0 6.40039 0H17.5996ZM7.92578 5.49512C7.67844 5.61191 2.99953 6.80995 7.92676 11.4834L5.56934 15.9951C6.73101 19.03 12.6276 16.0045 12.542 16.1611L9.13672 19.0312C8.97437 19.3149 9.27305 19.6395 9.56738 19.499L19.1084 14.9463C19.3504 14.8308 19.3639 14.4897 19.1318 14.3555L15.2627 12.123C15.1036 12.0313 15.0483 11.8277 15.1396 11.668L17.9219 6.80762C18.0841 6.52399 17.7845 6.19942 17.4902 6.33984L7.92578 5.49512Z" fill="#013941"/>
</svg>
